Coordinates
version=1
nRows=13
nColumns=63
inDegrees=yes

Units are S.I. units (second, meters, Newtons, ...)
If the header above contains a line with 'inDegrees', this indicates whether rotational values are in degrees (yes) or radians (no).

endheader
time	pelvis_tilt	pelvis_list	pelvis_rotation	pelvis_tx	pelvis_ty	pelvis_tz	hip_flexion_r	hip_adduction_r	hip_rotation_r	knee_angle_r	knee_angle_r_beta	ankle_angle_r	subtalar_angle_r	mtp_angle_r	hip_flexion_l	hip_adduction_l	hip_rotation_l	knee_angle_l	knee_angle_l_beta	ankle_angle_l	subtalar_angle_l	mtp_angle_l	L5_S1_Flex_Ext	L5_S1_Lat_Bending	L5_S1_axial_rotation	L4_L5_Flex_Ext	L4_L5_Lat_Bending	L4_L5_axial_rotation	L3_L4_Flex_Ext	L3_L4_Lat_Bending	L3_L4_axial_rotation	L2_L3_Flex_Ext	L2_L3_Lat_Bending	L2_L3_axial_rotation	L1_L2_Flex_Ext	L1_L2_Lat_Bending	L1_L2_axial_rotation	L1_T12_Flex_Ext	L1_T12_Lat_Bending	L1_T12_axial_rotation	Abs_r3	Abs_r2	Abs_r1	Abs_t1	Abs_t2	neck_flexion	neck_bending	neck_rotation	arm_flex_r	arm_add_r	arm_rot_r	elbow_flex_r	pro_sup_r	wrist_flex_r	wrist_dev_r	arm_flex_l	arm_add_l	arm_rot_l	elbow_flex_l	pro_sup_l	wrist_flex_l	wrist_dev_l
2.702128	-0.316556	2.662902	87.884335	0.225500	0.757955	0.796585	-2.000621	-0.607984	-13.512321	9.219516	0.160911	27.794182	14.405249	0.000000	-2.182727	0.620539	-5.637635	6.507819	0.113583	27.436476	2.379966	0.000000	0.042741	0.109040	-0.321295	0.079375	0.145023	-0.341375	0.070220	0.265119	-0.341375	0.048849	0.265119	-0.281133	0.039690	0.222354	-0.261052	0.024422	0.168903	-0.240971	0.305296	1.233480	-1.786944	0.000000	0.000000	13.183544	2.190087	12.573169	52.463310	-12.591648	18.981960	120.553555	88.173082	0.628166	13.361779	47.265108	-19.454907	-10.449590	126.885480	89.157884	-26.179398	-11.450225
2.723404	-0.383572	2.750265	88.020586	0.226278	0.758290	0.795167	-2.249086	-0.564280	-13.137465	8.947076	0.156156	27.866612	14.050411	0.000000	-2.330760	0.629462	-5.474811	6.446326	0.112510	27.455307	2.358025	0.000000	0.047245	0.079285	-0.334921	0.087739	0.105449	-0.355854	0.077619	0.192774	-0.355854	0.053997	0.192774	-0.293056	0.043872	0.161678	-0.272123	0.026996	0.122813	-0.251191	0.337469	0.896888	-1.862730	0.000000	0.000000	13.225493	2.304542	11.979973	51.790084	-12.459084	18.513519	121.343953	87.982288	1.522533	14.014487	46.807511	-19.178400	-8.507545	128.706689	89.224307	-29.009393	-14.613196
2.744681	-0.481640	2.843912	88.124803	0.227122	0.758653	0.793657	-2.522389	-0.551483	-12.674157	8.644702	0.150879	27.935169	13.630255	0.000000	-2.492991	0.682203	-5.147898	6.347600	0.110787	27.452637	2.120054	0.000000	0.052281	0.045084	-0.337680	0.097090	0.059961	-0.358785	0.085892	0.109617	-0.358785	0.059752	0.109617	-0.295470	0.048548	0.091935	-0.274365	0.029873	0.069835	-0.253260	0.373436	0.509997	-1.878077	0.000000	0.000000	13.263341	2.436378	11.313603	51.069682	-12.287463	17.968486	122.079169	87.778759	2.424122	14.495491	46.216382	-18.959455	-6.726365	131.130546	89.271102	-31.406526	-17.781496
2.765957	-0.589888	2.944750	88.200869	0.227994	0.759020	0.792079	-2.824738	-0.550907	-12.177667	8.309743	0.145032	28.008882	13.203927	0.000000	-2.672104	0.760046	-4.603880	6.213899	0.108453	27.428342	1.604855	0.000000	0.057526	0.009611	-0.331360	0.106831	0.012782	-0.352070	0.094509	0.023367	-0.352070	0.065746	0.023367	-0.289940	0.053418	0.019598	-0.269230	0.032870	0.014887	-0.248520	0.410900	0.108717	-1.842925	0.000000	0.000000	13.276561	2.586098	10.618675	50.323086	-12.080318	17.405147	122.725842	87.573732	3.165895	14.650347	45.556964	-18.783219	-5.167847	133.970230	89.312929	-33.174308	-20.645925
2.787234	-0.704290	3.065812	88.256978	0.228843	0.759388	0.790440	-3.169723	-0.562243	-11.676756	7.947725	0.138714	28.100169	12.786989	0.000000	-2.888189	0.865240	-3.783374	6.037797	0.105379	27.357569	0.734538	0.000000	0.060521	-0.026212	-0.310584	0.112393	-0.034861	-0.329996	0.099430	-0.063731	-0.329996	0.069169	-0.063731	-0.271761	0.056200	-0.053451	-0.252350	0.034582	-0.040602	-0.232938	0.432295	-0.296511	-1.727376	0.000000	0.000000	13.264915	2.751595	9.897991	49.550079	-11.870287	16.810024	123.310477	87.386535	3.796869	14.429370	44.909683	-18.613148	-3.776981	136.933444	89.355240	-34.256849	-23.147931
2.808511	-0.821962	3.183224	88.305830	0.229667	0.759727	0.788764	-3.528056	-0.579928	-11.206907	7.568256	0.132091	28.210219	12.409498	0.000000	-3.092459	0.966624	-3.088473	5.874223	0.102525	27.352157	0.072294	0.000000	0.064036	-0.061525	-0.283457	0.118921	-0.081828	-0.301173	0.105205	-0.149592	-0.301173	0.073187	-0.149592	-0.248025	0.059464	-0.125462	-0.230308	0.036590	-0.095302	-0.212592	0.457403	-0.695982	-1.576501	0.000000	0.000000	13.234758	2.922928	9.200344	48.785284	-11.652351	16.324293	123.810085	87.242709	3.966629	13.617097	44.307736	-18.462061	-2.685781	139.851799	89.391940	-34.302034	-24.638314
2.829787	-0.933332	3.305258	88.336372	0.230448	0.760048	0.787083	-3.902881	-0.598297	-10.778574	7.180093	0.125316	28.332816	12.100849	0.000000	-3.311099	1.071816	-2.318360	5.691966	0.099344	27.317783	-0.708512	0.000000	0.066201	-0.095038	-0.240378	0.122942	-0.126401	-0.255401	0.108761	-0.231075	-0.255401	0.075661	-0.231075	-0.210331	0.061474	-0.193801	-0.195307	0.037827	-0.147214	-0.180283	0.472866	-1.075089	-1.336909	0.000000	0.000000	13.181975	3.125965	8.533208	48.055126	-11.456868	15.915029	124.239136	87.158968	3.748019	12.293840	43.823461	-18.278649	-1.786306	142.423695	89.403565	-33.417084	-24.930895
2.851064	-1.039318	3.458467	88.342357	0.231195	0.760375	0.785468	-4.307250	-0.621467	-10.415142	6.808972	0.118839	28.479406	11.897418	0.000000	-3.564646	1.177331	-1.585399	5.513016	0.096220	27.276273	-1.485189	0.000000	0.062752	-0.127367	-0.174317	0.116536	-0.169398	-0.185212	0.103095	-0.309680	-0.185212	0.071719	-0.309680	-0.152528	0.058271	-0.259727	-0.141633	0.035856	-0.197291	-0.130738	0.448229	-1.440800	-0.969501	0.000000	0.000000	13.107102	3.312197	7.811389	47.417507	-11.309906	15.574851	124.557592	87.147873	3.074481	10.537173	43.545951	-18.017282	-0.951271	144.356088	89.366430	-31.846681	-23.960337
2.872340	-1.138456	3.588926	88.339109	0.231912	0.760654	0.783912	-4.690587	-0.640387	-10.118959	6.442013	0.112434	28.630302	11.786293	0.000000	-3.803123	1.277504	-0.891633	5.325597	0.092949	27.208466	-2.248907	0.000000	0.064754	-0.158271	-0.089702	0.120255	-0.210500	-0.095309	0.106384	-0.384820	-0.095309	0.074007	-0.384820	-0.078489	0.060131	-0.322746	-0.072883	0.037000	-0.245162	-0.067277	0.462531	-1.790394	-0.498896	0.000000	0.000000	12.972169	3.513278	7.124126	46.886944	-11.179552	15.279600	124.711554	87.194011	2.053077	8.523509	43.499043	-17.663958	-0.150778	145.399617	89.282250	-29.567843	-22.110557
2.893617	-1.229364	3.745355	88.347306	0.232564	0.760926	0.782460	-5.093964	-0.655543	-9.889399	6.104210	0.106539	28.794626	11.744580	0.000000	-4.068818	1.370137	-0.227576	5.150668	0.089896	27.131836	-2.985971	0.000000	0.063820	-0.187345	0.008753	0.118519	-0.249169	0.009300	0.104849	-0.455511	0.009300	0.072939	-0.455511	0.007659	0.059263	-0.382034	0.007112	0.036466	-0.290197	0.006565	0.455857	-2.119284	0.048682	0.000000	0.000000	12.768856	3.726571	6.493708	46.537603	-11.032512	14.975500	124.591783	87.304556	0.876067	6.403922	43.742963	-17.195425	0.683221	145.388207	89.177264	-26.789900	-19.845458
2.914894	-1.317220	3.921030	88.359709	0.233181	0.761177	0.781080	-5.511691	-0.672106	-9.761084	5.792638	0.101101	28.977702	11.830167	0.000000	-4.366668	1.459422	0.366572	4.975933	0.086846	27.045149	-3.654002	0.000000	0.061220	-0.215282	0.121095	0.113691	-0.286324	0.128663	0.100578	-0.523435	0.128663	0.069968	-0.523435	0.105958	0.056849	-0.439002	0.098389	0.034981	-0.333471	0.090821	0.437286	-2.435307	0.673492	0.000000	0.000000	12.507852	3.911420	5.894331	46.434907	-10.865549	14.718815	124.082211	87.447453	-0.647658	4.136653	44.316217	-16.617951	1.668727	144.264148	89.073596	-24.077876	-17.658982
2.936170	-1.367202	4.121192	88.366606	0.233738	0.761384	0.779798	-5.936597	-0.657595	-9.725042	5.530516	0.096526	29.177209	12.055484	0.000000	-4.695330	1.509129	0.873087	4.825168	0.084215	26.982128	-4.247118	0.000000	0.053747	-0.237550	0.247160	0.099813	-0.315941	0.262608	0.088301	-0.577578	0.262608	0.061427	-0.577578	0.216265	0.049909	-0.484411	0.200818	0.030711	-0.367964	0.185370	0.383909	-2.687208	1.374631	0.000000	0.000000	12.246634	4.038962	5.298785	46.652000	-10.691171	14.523252	123.111878	87.592004	-2.521382	1.839125	45.225795	-15.909118	2.848188	142.158932	88.958216	-21.930255	-15.543982
2.957447	-1.399838	4.312100	88.351524	0.234267	0.761499	0.778581	-6.335484	-0.633255	-9.765076	5.306253	0.092612	29.395642	12.409152	0.000000	-5.032801	1.544819	1.315806	4.680842	0.081696	26.917570	-4.820913	0.000000	0.047677	-0.256641	0.387818	0.088540	-0.341333	0.412057	0.078328	-0.623998	0.412057	0.054489	-0.623998	0.339341	0.044272	-0.523343	0.315102	0.027242	-0.397538	0.290864	0.340549	-2.903179	2.156928	0.000000	0.000000	11.967574	4.123215	4.704320	47.172066	-10.478835	14.353721	121.615705	87.704070	-4.606544	-0.594065	46.395306	-15.087706	4.139518	139.263928	88.850026	-20.265892	-13.521646
